<?xml version="1.0" encoding="UTF-8"?>
<svg version="1.1" xmlns="http://www.w3.org/2000/svg" width="512" height="898">
<path d="M0 0 C168.96 0 337.92 0 512 0 C512 296.34 512 592.68 512 898 C343.04 898 174.08 898 0 898 C0 601.66 0 305.32 0 0 Z " fill="#F59926" transform="translate(0,0)"/>
<path d="M0 0 C1.13018555 -0.01498535 1.13018555 -0.01498535 2.28320312 -0.03027344 C7.62347063 0.05369303 7.62347063 0.05369303 10.16796875 1.78515625 C11.84299658 4.49985653 11.68538192 6.325738 11.1875 9.4375 C8.6875 12.1875 8.6875 12.1875 6.1875 14.4375 C6.1875 15.0975 6.1875 15.7575 6.1875 16.4375 C7.0125 16.829375 7.8375 17.22125 8.6875 17.625 C11.1875 19.4375 11.1875 19.4375 11.8125 22.75 C10.88348564 28.23118474 8.45884279 30.82420979 4.09765625 33.921875 C-0.74567129 36.86926748 -4.16522258 38.03827419 -9.8125 37.4375 C-9.8125 35.7875 -9.8125 34.1375 -9.8125 32.4375 C-9.22082031 32.26734375 -8.62914062 32.0971875 -8.01953125 31.921875 C-3.28092097 30.46859811 0.75603164 29.20104594 4.1875 25.4375 C4.1875 23.7875 4.1875 22.1375 4.1875 20.4375 C0.2275 20.4375 -3.7325 20.4375 -7.8125 20.4375 C-6.8125 16.4375 -6.8125 16.4375 -5.03515625 15.0234375 C-4.32230469 14.62382812 -3.60945312 14.22421875 -2.875 13.8125 C-0.48830708 12.45238825 1.23080487 11.39419513 3.1875 9.4375 C3.1875 8.1175 3.1875 6.7975 3.1875 5.4375 C1.72869891 5.57857747 0.27046449 5.72552415 -1.1875 5.875 C-1.99960938 5.95621094 -2.81171875 6.03742188 -3.6484375 6.12109375 C-5.85522805 6.32840114 -5.85522805 6.32840114 -7.8125 7.4375 C-9.80712734 14.26877273 -10.12520274 21.52135892 -10.46875 28.58984375 C-10.8018832 31.34954948 -11.39923687 33.07256371 -12.8125 35.4375 C-14.4625 35.1075 -16.1125 34.7775 -17.8125 34.4375 C-17.97839226 28.41008105 -17.38364133 22.86255207 -16.3125 16.9375 C-16.16941406 16.11507813 -16.02632812 15.29265625 -15.87890625 14.4453125 C-15.52943088 12.44165373 -15.17181844 10.43941702 -14.8125 8.4375 C-15.8025 8.4375 -16.7925 8.4375 -17.8125 8.4375 C-17.21301642 4.87057272 -16.93730381 4.53110285 -13.8125 2.1875 C-9.30721205 0.10370137 -4.87961825 0.03905339 0 0 Z " fill="#FDEBD5" transform="translate(246.8125,407.5625)"/>
<path d="M0 0 C0.38218767 1.65614657 0.71395102 3.32457024 1 5 C-0.51421001 6.51421001 -1.92472768 6.21309856 -4.03515625 6.31640625 C-5.24848633 6.37924805 -5.24848633 6.37924805 -6.48632812 6.44335938 C-7.7615332 6.50233398 -7.7615332 6.50233398 -9.0625 6.5625 C-9.91650391 6.60568359 -10.77050781 6.64886719 -11.65039062 6.69335938 C-13.76672037 6.79976702 -15.88333813 6.90041731 -18 7 C-18.33 9.97 -18.66 12.94 -19 16 C-17.659375 15.67 -16.31875 15.34 -14.9375 15 C-10.83301179 14.07778904 -7.19294357 13.82157687 -3 14 C-3 15.65 -3 17.3 -3 19 C-8.69221983 20.55242359 -14.1243632 21.44915905 -20 22 C-20.33 24.97 -20.66 27.94 -21 31 C-20.11957031 30.7834375 -19.23914063 30.566875 -18.33203125 30.34375 C-16.58986328 29.92609375 -16.58986328 29.92609375 -14.8125 29.5 C-13.66394531 29.2215625 -12.51539063 28.943125 -11.33203125 28.65625 C-8.43181171 28.08504615 -5.93903615 27.86716221 -3 28 C-2.61781233 29.65614657 -2.28604898 31.32457024 -2 33 C-5.48995926 36.48995926 -17.93529013 36.13258569 -22.8125 36.25 C-26 36 -26 36 -28 34 C-27.84072101 31.48158874 -27.57219805 29.11021241 -27.1875 26.625 C-26.98226424 25.17477632 -26.77915871 23.72424965 -26.578125 22.2734375 C-26.47693359 21.5525293 -26.37574219 20.83162109 -26.27148438 20.08886719 C-25.76910778 16.22345878 -25.51213229 12.34054536 -25.24609375 8.453125 C-25.02086158 6.20795356 -24.612795 4.16757239 -24 2 C-15.97649696 0.81603117 -8.13544686 -0.28545428 0 0 Z " fill="#FCE9D1" transform="translate(198,408)"/>
<path d="M0 0 C2.8100346 1.79363911 4.50940468 3.01880935 6 6 C6.66946785 11.57889876 5.50136719 14.71177423 2.4375 19.203125 C0.05213842 22.18482698 -2.59877094 24.29938547 -6 26 C-10.00686356 26.44520706 -12.14702112 26.63426635 -15.4375 24.1875 C-17.75529776 19.45919257 -17.75257301 15.16918832 -17 10 C-13.41155129 2.69019706 -8.27608645 -1.70537539 0 0 Z " fill="#FDEEDB" transform="translate(307,417)"/>
<path d="M0 0 C3.28295418 0.71551565 4.44410078 1.84938558 6.4375 4.53125 C7.60080595 9.52704241 7.59646522 14.51648213 5.00390625 19.0234375 C1.1699298 23.52526791 -2.07362997 26.26458535 -8.0625 26.90625 C-11.5625 26.53125 -11.5625 26.53125 -13.75 24.875 C-16.60465575 21.18363481 -16.10682608 17.95753714 -15.953125 13.4453125 C-15.43452288 9.5765407 -14.16033684 7.41773538 -11.5625 4.53125 C-11.02625 3.7475 -10.49 2.96375 -9.9375 2.15625 C-6.64368698 -0.09741154 -3.91474479 0.04774079 0 0 Z " fill="#FDECD7" transform="translate(278.5625,416.46875)"/>
<path d="M0 0 C1.32 0 2.64 0 4 0 C4.21527666 5.70483145 3.60214168 10.79805626 2.4375 16.38671875 C2.00375132 18.97759253 1.92443145 21.37871599 2 24 C2.56847656 23.36191406 3.13695312 22.72382813 3.72265625 22.06640625 C10.81460578 14.47719148 10.81460578 14.47719148 15.0625 13.9375 C16.5165625 13.9684375 16.5165625 13.9684375 18 14 C17.9375 16.1875 17.9375 16.1875 17 19 C14.43314355 21.38627358 11.61081552 24 8 24 C9.39514503 28.43909781 11.47695811 30.98024981 15 34 C17.17346568 34.86119134 17.17346568 34.86119134 19 35 C18.67 36.65 18.34 38.3 18 40 C13.82742897 40.49673465 12.31222876 40.22039677 8.8125 37.75 C6.58449429 35.57150553 4.83901777 33.48267399 3 31 C2.34 31 1.68 31 1 31 C0.67 33.64 0.34 36.28 0 39 C-1.65614657 39.38218767 -3.32457024 39.71395102 -5 40 C-5.33 39.67 -5.66 39.34 -6 39 C-5.98773636 36.3571849 -5.90147425 33.76114494 -5.75 31.125 C-5.70480225 30.33158203 -5.65960449 29.53816406 -5.61303711 28.72070312 C-5.21111903 22.60148543 -4.4927229 16.56043718 -3.5625 10.5 C-3.37929199 9.27240967 -3.37929199 9.27240967 -3.19238281 8.02001953 C-2.2496285 2.2496285 -2.2496285 2.2496285 0 0 Z " fill="#FDECD7" transform="translate(323,403)"/>
<path d="M0 0 C1.14082031 0.13921875 1.14082031 0.13921875 2.3046875 0.28125 C2.66774962 3.57808832 2.52754068 4.95526245 0.625 7.73828125 C-0.09945312 8.51558594 -0.82390625 9.29289062 -1.5703125 10.09375 C-2.28960937 10.88394531 -3.00890625 11.67414063 -3.75 12.48828125 C-5.6953125 14.28125 -5.6953125 14.28125 -7.6953125 14.28125 C-7.6953125 15.27125 -7.6953125 16.26125 -7.6953125 17.28125 C-7.1384375 17.52875 -6.5815625 17.77625 -6.0078125 18.03125 C-3.29560123 19.49731015 -1.05943885 21.31114471 1.3046875 23.28125 C0.9746875 24.60125 0.6446875 25.92125 0.3046875 27.28125 C-1.7578125 27.71875 -1.7578125 27.71875 -4.6953125 27.28125 C-7.26791422 25.16044817 -9.48785749 22.77497439 -11.6953125 20.28125 C-14.65935755 23.08929268 -17.14030269 25.46440774 -18.6953125 29.28125 C-20.3453125 28.95125 -21.9953125 28.62125 -23.6953125 28.28125 C-23.22182836 24.1145896 -22.64834409 21.35240285 -19.6953125 18.28125 C-19.0353125 18.28125 -18.3753125 18.28125 -17.6953125 18.28125 C-16.53871201 13.8588243 -16.53871201 13.8588243 -18.1328125 9.71875 C-18.6484375 8.914375 -19.1640625 8.11 -19.6953125 7.28125 C-19.9453125 4.53125 -19.9453125 4.53125 -19.6953125 2.28125 C-18.6953125 1.28125 -18.6953125 1.28125 -16.1328125 1.21875 C-14.92625 1.2496875 -14.92625 1.2496875 -13.6953125 1.28125 C-13.0353125 3.92125 -12.3753125 6.56125 -11.6953125 9.28125 C-10.7053125 9.28125 -9.7153125 9.28125 -8.6953125 9.28125 C-7.06204799 7.03216445 -5.75697697 4.66911496 -4.390625 2.25 C-2.6953125 0.28125 -2.6953125 0.28125 0 0 Z " fill="#FDEBD6" transform="translate(222.6953125,415.71875)"/>
<path d="M0 0 C0.8125 2.1875 0.8125 2.1875 1 5 C-2.14081496 8.99740086 -5.53140332 10.76570166 -10 13 C-10.33 13.99 -10.66 14.98 -11 16 C-10.38511719 15.91621094 -9.77023438 15.83242188 -9.13671875 15.74609375 C-8.32847656 15.64425781 -7.52023438 15.54242188 -6.6875 15.4375 C-5.88699219 15.33308594 -5.08648437 15.22867187 -4.26171875 15.12109375 C-2 15 -2 15 1 16 C1.33 17.65 1.66 19.3 2 21 C-1.36103368 24.19298199 -3.66157388 26.1498386 -8.25 27.0625 C-12.04905031 27.57882299 -12.04905031 27.57882299 -13.5 30.125 C-13.665 30.74375 -13.83 31.3625 -14 32 C-14.66 31.34 -15.32 30.68 -16 30 C-15.505 28.515 -15.505 28.515 -15 27 C-14.81328192 25.67596781 -14.6614399 24.34678138 -14.53515625 23.015625 C-14.45716797 22.24476563 -14.37917969 21.47390625 -14.29882812 20.6796875 C-14.14281803 19.07574904 -13.98912466 17.47158334 -13.83789062 15.8671875 C-13.34443718 11.03696029 -12.683489 6.57031696 -11 2 C-7.3137142 0.11589837 -4.10176491 -0.24128029 0 0 Z " fill="#F59E31" transform="translate(250,412)"/>
<path d="M0 0 C2.33944736 0.28730055 4.6739143 0.61936779 7 1 C7.29201904 5.96432365 7.14707573 9.03701574 4 13 C3.01 13.33 2.02 13.66 1 14 C1 14.66 1 15.32 1 16 C-0.66611905 16.042721 -2.33382885 16.04063832 -4 16 C-5 15 -5 15 -5.3125 11.875 C-4.93132412 7.14841904 -3.45445275 3.45445275 0 0 Z " fill="#F5A239" transform="translate(300,422)"/>
<path d="M0 0 C1.2684375 0.12375 1.2684375 0.12375 2.5625 0.25 C4.5625 3.25 4.5625 3.25 4.4375 6.625 C3.48009163 10.59140611 2.51534917 12.461198 -0.4375 15.25 C-3.125 16.125 -3.125 16.125 -5.4375 16.25 C-6.4375 15.25 -6.4375 15.25 -6.6875 11.5625 C-6.6444619 6.77666333 -5.43825977 0.55777023 0 0 Z " fill="#F59D2F" transform="translate(275.4375,421.75)"/>
<path d="M0 0 C0 0.33 0 0.66 0 1 C-1.5159375 1.061875 -1.5159375 1.061875 -3.0625 1.125 C-7.85902082 1.76127317 -10.67514558 4.69535746 -14 8 C-14 5 -14 5 -11.5 2.3125 C-7.72128366 -0.70685707 -4.69322674 -0.40458851 0 0 Z " fill="#FCE5C8" transform="translate(307,417)"/>
<path d="M0 0 C0.33 0 0.66 0 1 0 C1.19477739 1.62414378 1.38059458 3.24936423 1.5625 4.875 C1.66691406 5.77992188 1.77132812 6.68484375 1.87890625 7.6171875 C2 10 2 10 1 12 C0.34 12 -0.32 12 -1 12 C-1 13.65 -1 15.3 -1 17 C-1.33 17 -1.66 17 -2 17 C-1.03644647 5.47835991 -1.03644647 5.47835991 0 0 Z " fill="#F8BD73" transform="translate(238,415)"/>
<path d="M0 0 C0.95278709 3.2425496 1.19541781 6.25000153 1.25 9.625 C1.27578125 10.58664062 1.3015625 11.54828125 1.328125 12.5390625 C1.21984375 13.35117187 1.1115625 14.16328125 1 15 C0.01 15.66 -0.98 16.32 -2 17 C-1.85899143 14.72886197 -1.71203245 12.45809275 -1.5625 10.1875 C-1.48128906 8.92292969 -1.40007812 7.65835937 -1.31640625 6.35546875 C-1 3 -1 3 0 0 Z " fill="#F7B35E" transform="translate(326,411)"/>
<path d="M0 0 C0.33 0 0.66 0 1 0 C2.42857143 8.57142857 2.42857143 8.57142857 0 12 C-0.66 11.34 -1.32 10.68 -2 10 C-1.7578125 7.6171875 -1.7578125 7.6171875 -1.125 4.875 C-0.92132813 3.96492188 -0.71765625 3.05484375 -0.5078125 2.1171875 C-0.34023437 1.41851562 -0.17265625 0.71984375 0 0 Z " fill="#F6AD51" transform="translate(236,432)"/>
<path d="M0 0 C1.98 0 3.96 0 6 0 C5.360625 0.20625 4.72125 0.4125 4.0625 0.625 C1.65074923 1.89538209 1.65074923 1.89538209 1.25 5.125 C1.1675 6.07375 1.085 7.0225 1 8 C-0.42944945 5.64561267 -1.08661261 4.51967567 -0.625 1.75 C-0.41875 1.1725 -0.2125 0.595 0 0 Z " fill="#FCE2C1" transform="translate(174,410)"/>
</svg>
